<svg xmlns="http://www.w3.org/2000/svg" width="19" height="19" viewBox="0 0 19 19"><g><g><path fill="#5e5e5e" d="M17.364 13.882a3.486 3.486 0 0 1-3.482 3.482H5.55a3.486 3.486 0 0 1-3.482-3.482V5.55A3.486 3.486 0 0 1 5.55 2.068h8.332a3.486 3.486 0 0 1 3.482 3.482v8.332zM13.882.418H5.55A5.138 5.138 0 0 0 .418 5.55v8.332a5.138 5.138 0 0 0 5.132 5.132h8.332a5.138 5.138 0 0 0 5.132-5.132V5.55A5.138 5.138 0 0 0 13.882.418z"/></g><g><path fill="#5e5e5e" d="M9.716 12.858a3.145 3.145 0 0 1-3.142-3.142 3.145 3.145 0 0 1 3.142-3.141 3.145 3.145 0 0 1 3.142 3.141 3.145 3.145 0 0 1-3.142 3.142zm0-7.933a4.797 4.797 0 0 0-4.792 4.791 4.797 4.797 0 0 0 4.792 4.792 4.797 4.797 0 0 0 4.792-4.792 4.797 4.797 0 0 0-4.792-4.791z"/></g><g><path fill="#5e5e5e" d="M14.709 3.526a1.215 1.215 0 0 0-1.21 1.21c0 .318.13.63.355.855.225.225.537.355.855.355.319 0 .63-.13.856-.355a1.215 1.215 0 0 0 0-1.712 1.215 1.215 0 0 0-.856-.353z"/></g></g></svg>