<svg xmlns="http://www.w3.org/2000/svg" width="23" height="22" viewBox="0 0 23 22"><defs><linearGradient id="ezbta" x1="12.27" x2="12.04" y1="24.82" y2="-5.03" gradientUnits="userSpaceOnUse"><stop offset="0" stop-color="#20b038"/><stop offset="1" stop-color="#60d66a"/></linearGradient></defs><g><g><path fill="url(#ezbta)" d="M.8840000000000003 11.181000000000001c0 1.874.49 3.703 1.42 5.316l-1.509 5.51 5.64-1.478a10.636 10.636 0 0 0 5.082 1.294h.005c5.863 0 10.635-4.77 10.637-10.634a10.568 10.568 0 0 0-3.113-7.523A10.57 10.57 0 0 0 11.522.547C5.659.547.887 5.317.884 11.181"/></g><g><path fill="#fff" d="M8.77 6.572c-.207-.459-.424-.468-.62-.476-.16-.007-.344-.006-.528-.006-.183 0-.481.069-.734.344-.252.276-.963.942-.963 2.296 0 1.355.986 2.664 1.124 2.848.137.183 1.905 3.052 4.703 4.156 2.326.917 2.799.734 3.304.688.505-.045 1.629-.665 1.858-1.308.23-.643.23-1.194.16-1.31-.068-.114-.252-.183-.527-.32-.275-.138-1.629-.804-1.881-.896-.253-.092-.436-.138-.62.138-.184.275-.71.895-.871 1.079-.161.184-.322.207-.597.069-.275-.138-1.162-.429-2.214-1.367-.819-.73-1.371-1.63-1.532-1.906-.16-.275-.017-.425.121-.562.124-.123.275-.321.413-.482.138-.16.183-.276.275-.46.092-.183.046-.344-.023-.481-.069-.138-.604-1.5-.849-2.044"/></g></g></svg>