<svg xmlns="http://www.w3.org/2000/svg" width="24" height="14" viewBox="0 0 24 14"><g><g><path fill="#5e5e5e" d="M23.462.978c.163-.543 0-.943-.776-.943H20.12c-.652 0-.953.345-1.116.726 0 0-1.305 3.18-3.154 5.246-.598.598-.87.788-1.196.788-.163 0-.399-.19-.399-.733V.978c0-.652-.19-.943-.733-.943H9.49c-.408 0-.653.303-.653.59 0 .618.924.761 1.02 2.5v3.78c0 .828-.15.978-.476.978-.87 0-2.986-3.195-4.24-6.85-.247-.71-.493-.998-1.15-.998H1.427c-.733 0-.88.345-.88.726 0 .68.87 4.05 4.05 8.508 2.12 3.045 5.108 4.695 7.827 4.695 1.63 0 1.832-.367 1.832-.998v-2.3c0-.734.155-.88.671-.88.38 0 1.033.19 2.556 1.658 1.74 1.74 2.026 2.52 3.005 2.52h2.565c.734 0 1.1-.367.889-1.09-.232-.72-1.062-1.767-2.165-3.007-.598-.707-1.495-1.468-1.766-1.848-.381-.49-.272-.707 0-1.142 0 0 3.126-4.404 3.452-5.899z"/></g></g></svg>