<svg xmlns="http://www.w3.org/2000/svg" width="170" height="57" viewBox="0 0 170 57"><g><g opacity="1"><g opacity="1"><g opacity="1"><path fill="#d8d8d8" d="M143.664 32.955v-10.33h-13.089v10.33h13.089m-23.077 0v-10.33h-13.089v10.33zm-85.227 0v-10.33h-13.1v10.33zm6.602 3.159V23.275h3.124v-3.158h9.942v3.17H45.13v12.827zm85.444 0V19.468h19.416v16.646zm-23.078 0v-22.62h3.17v5.974h16.247v16.646zm-46.392 0V19.65h3.158v13.305h13.271V19.65h3.17v16.464zm-38.835 0v-22.62h3.159v5.974h16.259v16.646zm78.649.01v-.01H80.978v-3.159H97.75v-3.203H84.16v.034H81v-10.17h20.01v3.158H84.158v3.808h16.726v.513h.024v9.03zm56.711.297l-4.355-.17 7.502-8.232-7.502-8.358h4.276l5.427 5.952 5.428-5.952h4.275l-7.503 8.358 7.503 8.231-4.356.171-5.347-5.951z"/></g><g opacity="1"><path fill="#d8d8d8" d="M99.962 16.081L64.32.154 28.69 16.08zm-84.464 5.142L.232 28.27l15.266 7.045zm84.464 19.018H28.69l35.63 15.928z"/></g></g></g></g></svg>