<svg xmlns="http://www.w3.org/2000/svg" width="120" height="48" viewBox="0 0 120 48"><g><g opacity="1"><g opacity="1"><g opacity="1"><path fill="#d8d8d8" d="M51.921-.085L28.124 23.638l23.797 23.805H38.575L14.86 23.638 38.575-.085h13.346"/></g><g opacity="1"><path fill="#d8d8d8" d="M24.345 37.954l9.487 9.49H.628V-.087h33.204l-9.487 9.49h-14.23v28.55h14.23"/></g><g opacity="1"><path fill="#d8d8d8" d="M56.664 47.443h6.673v-5.87l2.333-3.297 4.26 9.167h7.879l-7.477-15.039 6.03-8.766h-6.674l-6.35 9.892v-9.892h-6.674v23.805"/></g><g opacity="1"><path fill="#d8d8d8" d="M101.525 47.443h18.009v-5.549h-11.095v-4.02h9.005v-5.148h-9.005v-3.538h10.935v-5.55h-17.849v23.805"/></g><g opacity="1"><path fill="#d8d8d8" d="M98.712 40.286l.079.08v.885l-.08.161v.563l-.08.16v.403l-.08.16v.16l-.08.162-.081.16v.162l-.081.16-.08.162-.08.16-.081.162-.08.16-.08.08-.081.161-.08.162-.08.16-.081.08-.081.161-.16.081-.081.16-.08.081-.161.16-.08.081-.161.08-.16.161-.081.081-.16.081-.162.16-.16.08-.081.082-.16.08-.162.08-.16.08-.16.08-.162.081-.241.081-.16.08h-.162l-.16.08-.241.08h-.162l-.241.082-.16.08h-.241l-.162.08h-.241l-.16.081h-.483l-.24.08h-.725l-.241.08h-12.3V23.638h12.54l.082.081h1.126l.08.081h.482l.08.08h.322l.08.08h.241l.081.081h.16l.082.08h.16l.08.082h.161l.08.08h.082l.079.08h.08l.082.08h.079l.08.08h.081l.081.08.08.082h.08l.082.08h.079v.08h.08l.081.08.08.082h.081v.079h.08l.082.08.079.082.08.08.082.08.079.08.08.082h.081v.08l.08.08h.081v.08l.08.081v.08h.08l.08.08v.081l.082.08v.08h.08v.081l.08.081.081.08v.08l.08.081v.08h.08v.162l.081.08v.08l.08.08v.081l.082.08v.161l.079.081v.16l.08.081v.16l.081.081v.241l.08.081v.402l.081.08v1.93l-.081.162v.322l-.08.079v.241l-.08.081v.162l-.081.08v.08l-.08.16v.08l-.08.082v.08l-.08.08v.162l-.082.079-.08.08v.082l-.08.08-.081.08-.08.08v.082l-.08.16-.081.08-.08.08-.08.08-.081.082h-.081l-.08.08-.08.08-.081.08-.08.081-.08.081-.081.08-.08.08h-.08l-.058.058-.023.023-.081.08-.08.08h-.161l-.08.081-.08.081h-.08l-.162.08h-.08l-.081.08-.16.081h-.081l-.08.08h-.161l-.08.08h-.242l-.16.081h.16l.161.081h.081l.16.08h.16l.082.08h.16l.161.081h.081l.16.08h.082l.16.08.08.081h.08l.162.081.08.08.08.08h.162l.079.081.081.08.08.08.161.081.08.081.08.08.08.08h.082l.08.081.08.08.081.161.08.08.08.08.081.081.08.08.082.08.079.081.08.081v.16l.081.081.08.08v.08l.081.162.08.08v.08l.08.162.08.08v.16l.082.082v.24l.08.08v.162l.08.08v.321l.08.081v.724m-13.105-7.56h3.86s1.923.254 1.929-1.93c.005-2.184-1.928-2.01-1.928-2.01h-3.86zm4.679 9.49s2.071-.016 2.075-2.127c.005-2.11-1.93-2.216-1.93-2.216h-4.824v4.343z"/></g></g></g></g></svg>