<svg xmlns="http://www.w3.org/2000/svg" width="208" height="56" viewBox="0 0 208 56"><g><g opacity="1"><g opacity="1"><g opacity="1"><path fill="#d8d8d8" d="M104.728 43.729a5.47 5.47 0 0 1-5.478-5.479c0-3.067 2.41-5.478 5.478-5.478a5.47 5.47 0 0 1 5.478 5.478 5.47 5.47 0 0 1-5.478 5.479zm0-14.755c-5.186 0-9.422 4.236-9.422 9.422 0 5.187 4.236 9.423 9.422 9.423 5.186 0 9.423-4.236 9.423-9.423 0-5.186-4.237-9.422-9.423-9.422"/></g><g opacity="1"><path fill="#d8d8d8" d="M66.234 44.094a5.47 5.47 0 0 1-5.478-5.478 5.47 5.47 0 0 1 5.478-5.479c3.068 0 5.479 2.41 5.479 5.479-.073 3.067-2.484 5.478-5.479 5.478m0-15.12c-4.894-.146-8.984 3.579-9.35 8.473V54.83h3.945v-8.619c4.164 3.141 10.007 2.41 13.221-1.753 3.14-4.163 2.41-10.007-1.753-13.22a9.45 9.45 0 0 0-5.99-1.9m38.494 4.529c2.557 0 4.602 2.045 4.529 4.528 0 2.484-2.045 4.53-4.529 4.53-2.483 0-4.528-2.046-4.528-4.53 0-2.483 2.045-4.528 4.528-4.528m6.355 4.602a6.36 6.36 0 0 0-6.355-6.355 6.36 6.36 0 0 0-6.355 6.355 6.36 6.36 0 0 0 6.355 6.354 6.36 6.36 0 0 0 6.355-6.354zm-6.355-8.4c4.675 0 8.473 3.798 8.473 8.473 0 4.674-3.798 8.473-8.473 8.473-4.675 0-8.473-3.799-8.473-8.473 0-4.675 3.798-8.473 8.473-8.473m0 18.772c5.698 0 10.3-4.602 10.3-10.3 0-5.624-4.602-10.226-10.227-10.299-5.697-.073-10.299 4.53-10.372 10.227-.073 5.697 4.529 10.299 10.226 10.372"/></g><g opacity="1"><path fill="#d8d8d8" d="M182.812 38.689a5.47 5.47 0 0 1 5.478-5.479 5.47 5.47 0 0 1 5.478 5.479c0 3.067-2.41 5.478-5.478 5.478-2.995.073-5.478-2.337-5.552-5.332v-.365m-3.87.073c0 5.186 4.236 9.422 9.422 9.35a9.02 9.02 0 0 0 5.405-1.754v1.753h3.944v-10.08c-.657-5.186-5.405-8.765-10.518-8.108-4.529.585-8.035 4.383-8.18 8.985M66.526 33.868c2.483 0 4.528 2.045 4.528 4.528 0 2.484-2.045 4.53-4.528 4.53-2.484 0-4.53-2.046-4.53-4.53 0-2.483 2.046-4.528 4.53-4.528m0 10.956a6.36 6.36 0 0 0 6.354-6.354 6.322 6.322 0 0 0-6.062-6.21c-3.506-.145-6.501 2.557-6.647 6.063-.146 3.507 2.556 6.501 6.062 6.647m-8.473-6.354v-.95c.073-2.045.95-4.017 2.557-5.332a8.798 8.798 0 0 1 5.916-2.264c1.68 0 3.287.51 4.675 1.46 3.871 2.63 4.821 7.89 2.191 11.76-2.63 3.872-7.888 4.821-11.76 2.192l-1.46-1.023v9.86H57.76zm3.945 9.203a10.796 10.796 0 0 0 4.528 1.023c5.698 0 10.3-4.675 10.3-10.372 0-5.698-4.602-10.3-10.3-10.3-2.63.073-5.186 1.023-7.158 2.776-1.68 1.534-2.776 3.58-3.068 5.844V56h5.698z"/></g><g opacity="1"><path fill="#d8d8d8" d="M166.815 32.991a5.47 5.47 0 0 1 5.478 5.479 5.47 5.47 0 0 1-5.478 5.478c-3.068 0-5.478-2.41-5.478-5.478.073-2.922 2.483-5.26 5.332-5.26m.146 14.755c4.82 0 8.911-3.652 9.35-8.473V22.035h-3.945v8.838c-4.163-3.14-10.007-2.41-13.22 1.753-3.141 4.164-2.411 10.007 1.752 13.22a9.45 9.45 0 0 0 5.99 1.9m26.003-9.35c0 2.484-2.045 4.53-4.528 4.53-2.484 0-4.529-2.046-4.529-4.53 0-2.483 2.045-4.528 4.529-4.528 2.556 0 4.602 2.045 4.528 4.528zm-4.528 6.428c3.579 0 6.428-2.848 6.355-6.354a6.36 6.36 0 0 0-6.355-6.355 6.36 6.36 0 0 0-6.355 6.355 6.36 6.36 0 0 0 6.355 6.354m6.428-.438l-1.461 1.023c-1.169.876-2.557 1.387-4.018 1.534-4.601.438-8.765-2.922-9.203-7.597-.438-4.602 2.922-8.765 7.596-9.203 4.602-.439 8.766 2.921 9.204 7.596v9.277h-2.118zm3.87 4.456V37.374a10.282 10.282 0 0 0-10.225-9.13c-5.698 0-10.3 4.601-10.3 10.299 0 5.697 4.602 10.299 10.3 10.299 1.607 0 3.14-.366 4.529-1.023v1.023z"/></g><g opacity="1"><path fill="#d8d8d8" d="M130.732 29.12l-6.282 14.463-6.428-14.61h-3.944l8.327 19.065h4.017l8.254-18.918zm40.685 9.496c0 2.483-2.045 4.528-4.529 4.528-2.483 0-4.529-2.045-4.529-4.528 0-2.484 2.046-4.53 4.53-4.53 2.483 0 4.528 2.046 4.528 4.53zm-4.529 6.427a6.36 6.36 0 0 0 6.355-6.354 6.36 6.36 0 0 0-6.355-6.355 6.36 6.36 0 0 0-6.355 6.355 6.36 6.36 0 0 0 6.355 6.354m-.073-14.9c1.753 0 3.433.51 4.894 1.533l1.46 1.023v-9.715h2.12v16.289c-.366 4.31-4.018 7.597-8.328 7.597-4.675 0-8.473-3.726-8.473-8.4 0-4.675 3.725-8.474 8.4-8.474m.146 18.773c4.967 0 9.277-3.58 10.153-8.473V21.158h-5.77v8.108c-1.461-.657-2.995-1.023-4.602-1.023-5.697 0-10.3 4.602-10.3 10.3 0 5.697 4.603 10.299 10.3 10.299"/></g><g opacity="1"><path fill="#d8d8d8" d="M115.466 29.85h1.972l6.939 15.997 6.939-15.85h1.972l-7.523 17.092h-2.776zm20.817-1.753h-6.136l-5.77 13.148-5.77-13.22h-5.917l9.13 20.89h5.186z"/></g><g opacity="1"><path fill="#d8d8d8" d="M92.165 33.43c-1.315-3.653-5.405-5.552-9.058-4.237-2.556.95-4.382 3.214-4.601 5.917v13.074h4.236V37.447c0-1.753 0-3.58 2.045-4.237 2.046-.657 3.653.877 3.872 3.141h4.236c-.073-.95-.219-1.899-.511-2.848"/></g><g opacity="1"><path fill="#d8d8d8" d="M149.65 40.88h-6.355v-3.725h2.264c1.096 0 4.09.438 3.653-2.119-.439-2.556-3.799-2.264-5.77-1.826 0 .073-.074.073-.147.073a4.829 4.829 0 0 0-3.506 5.77c-.073 2.557 1.753 4.749 4.237 5.04h9.933v4.237h-6.647c-4.747 0-8.619-.438-11.102-5.186-2.264-4.163-1.096-9.35 2.63-12.271 3.87-2.776 9.13-2.776 13.074 0 1.972 1.46 2.922 3.871 2.484 6.209-.439 2.264-2.41 3.944-4.748 3.944m-70.34 6.282h2.336v-9.934c0-1.753 0-4.237 2.63-5.04 1.023-.438 2.191-.292 3.14.219.95.657 1.608 1.68 1.754 2.776h2.556a11.348 11.348 0 0 0-.365-1.68c-1.168-3.214-4.748-4.894-7.961-3.653-2.192.804-3.799 2.776-4.018 5.114a30.457 30.457 0 0 0 0 3.652v8.546m3.141 1.826h-5.04V38.98a34.225 34.225 0 0 1 0-3.871c.438-4.383 4.31-7.67 8.692-7.232a8.056 8.056 0 0 1 6.866 5.405c.292 1.023.438 2.046.585 3.141v.95h-6.063v-.804c0-.876-.365-1.68-1.023-2.264-.51-.292-1.095-.292-1.68 0-1.241.438-1.387 1.315-1.387 3.287v11.395z"/></g><g opacity="1"><path fill="#d8d8d8" d="M205.236 39.127V22.692h-4.237v18.845c-.073 2.557 1.242 4.894 3.433 6.136.804.438 1.753.803 2.63 1.023V44.02c-1.826-1.023-1.972-1.169-1.972-5.04m-59.75-9.13c2.119-.147 4.164.51 5.844 1.826 1.68 1.168 2.483 3.286 2.118 5.332-.438 1.899-2.045 3.214-3.944 3.287h-5.332V38.25h1.46c1.534.293 3.068-.073 4.237-1.022.511-.585.657-1.388.511-2.118-.146-.877-.584-1.607-1.315-2.119-1.68-.876-3.652-1.022-5.478-.438-2.995.511-5.113 3.287-4.675 6.355-.073 3.068 2.192 5.697 5.26 5.916h9.203v2.484h-5.77c-4.675 0-8.035-.438-10.3-4.675-2.045-3.798-1.095-8.473 2.338-11.103a9.517 9.517 0 0 1 6.062-1.899m9.423 13.367h-1.023c-1.753 0-7.742.22-9.787 0-2.192-.219-3.799-2.045-3.653-4.236-.292-2.046 1.023-3.945 2.995-4.383a6.042 6.042 0 0 1 4.237 0c.365.22.511.584.584.95 0 .584.438.146 0 .584-.438.438-1.972.438-2.556.438h-3.287v5.625h7.377c2.703-.073 5.04-2.046 5.551-4.748.439-2.703-.584-5.478-2.775-7.085a12.172 12.172 0 0 0-14.244 0c-4.09 3.213-5.259 8.838-2.848 13.367 2.702 5.186 7.085 5.624 11.833 5.624h7.45z"/></g><g opacity="1"><path fill="#d8d8d8" d="M202.022 33.649v-10.08h2.264v15.485c0 3.725.146 4.456 1.972 5.551v2.922a6.474 6.474 0 0 1-1.241-.584c-1.9-1.096-3.068-3.214-2.995-5.406V33.43m5.99 10.08l-.439-.22c-1.534-.803-1.534-.803-1.534-4.236V21.743h-5.843v19.94a7.866 7.866 0 0 0 3.798 6.94c.95.584 1.972.95 2.995 1.168h1.023z"/></g></g><g opacity="1"><path fill="#d8d8d8" d="M27.792 7.085c0 1.742-1.472 3.214-3.215 3.214-1.742 0-3.214-1.472-3.214-3.214s1.472-3.214 3.214-3.214a3.18 3.18 0 0 1 3.215 3.214zM6.316 34.695l8.911-17.02-1.534-1.605 6.866-6.502 2.411 1.607h3.286l2.338-1.607 6.866 6.502-1.826 1.605 9.276 17.022-7.158-4.457-4.236 3.578 1.972 8.765 3.287 2.85-4.967-.804-3.066-8.545h-.002l-4.163 3.506-4.091-3.506-3.14 8.545-5.04.804 3.36-2.995 2.117-8.474-4.31-3.724zM48.68 48.793V0H-.113v48.794z"/></g><g opacity="1"><path fill="#d8d8d8" d="M28.448 19.868l3.872-3.798-3.068-2.484zm-8.692-6.209l-2.995 2.484 3.945 3.798zm9.423 12.198l-1.315-4.601H21.29l-1.242 4.601 2.192-2.19 2.264 2.19.073.146 2.337-2.337z"/></g></g></g></svg>