<svg xmlns="http://www.w3.org/2000/svg" width="50" height="46" viewBox="0 0 50 46"><defs><clipPath id="4e8ya"><path fill="#fff" d="M3.034 23c0-12.703 10.074-23 22.5-23 12.427 0 22.5 10.297 22.5 23s-10.073 23-22.5 23c-12.426 0-22.5-10.297-22.5-23z"/></clipPath></defs><g><g><path fill="none" stroke="#f97632" stroke-miterlimit="50" stroke-width="6" d="M3.034 23c0-12.703 10.074-23 22.5-23 12.427 0 22.5 10.297 22.5 23s-10.073 23-22.5 23c-12.426 0-22.5-10.297-22.5-23z" clip-path="url(&quot;#4e8ya&quot;)"/></g><g><path fill="none" stroke="#1d1d1d" stroke-linecap="round" stroke-linejoin="round" stroke-miterlimit="50" stroke-width="3" d="M2 31.325v0l15.28-15.281v0l15.281 15.28v0l7.847-7.846v0l7.846 7.847v0"/></g></g></svg>