<svg xmlns="http://www.w3.org/2000/svg" width="20" height="19" viewBox="0 0 20 19"><g><g><g><g><g><path fill="#5e5e5e" d="M3.646000000000001 13.999l-.183-.29a7.638 7.638 0 0 1-1.171-4.076C2.294 5.41 5.73 1.975 9.956 1.975c2.047 0 3.97.798 5.417 2.246a7.612 7.612 0 0 1 2.242 5.418c-.002 4.223-3.439 7.66-7.662 7.66H9.95a7.653 7.653 0 0 1-3.899-1.068l-.28-.166-2.9.76zM.736 9.633c0 1.624.424 3.21 1.23 4.606L.658 19.014l4.887-1.281a9.212 9.212 0 0 0 4.405 1.122h.004c5.08 0 9.215-4.135 9.217-9.215a9.159 9.159 0 0 0-2.697-6.52A9.16 9.16 0 0 0 9.954.419C4.873.418.738 4.552.736 9.632"/></g><g><path fill="#5e5e5e" d="M7.65 5.78c-.173-.383-.354-.391-.518-.398-.135-.006-.288-.005-.442-.005a.846.846 0 0 0-.614.288c-.211.23-.806.788-.806 1.92 0 1.134.825 2.229.94 2.383.116.153 1.594 2.553 3.935 3.476 1.945.767 2.341.615 2.763.576.423-.038 1.363-.557 1.555-1.094.192-.538.192-1 .134-1.095-.057-.096-.21-.154-.441-.27-.23-.114-1.363-.672-1.574-.749-.211-.076-.365-.115-.518.116-.154.23-.595.749-.73.903-.134.153-.268.173-.498.057-.23-.115-.973-.358-1.853-1.143-.684-.61-1.146-1.364-1.28-1.595-.135-.23-.015-.355.1-.47.104-.103.23-.268.346-.403.115-.134.153-.23.23-.384.077-.154.038-.288-.02-.403-.057-.116-.504-1.255-.71-1.71"/></g></g></g></g></g></svg>