<?xml version="1.0" encoding="UTF-8"?>
<svg id="SVGDoc" width="149" height="56" xmlns="http://www.w3.org/2000/svg" version="1.1" xmlns:xlink="http://www.w3.org/1999/xlink" xmlns:avocode="https://avocode.com/" viewBox="0 0 149 56"><defs></defs><desc>Generated with Avocode.</desc><g><g opacity="1"><title>path28</title><path d="M32.67915,17.78613c2.7941,-13.46356 -10.66188,-21.48621 -19.85094,-16.02747c8.57091,3.16718 15.25191,8.12122 19.85094,16.02747" fill="#d8d8d8" fill-opacity="1"></path></g><g opacity="1"><title>path26</title><path d="M10.71349,3.17902c-13.13931,4.05396 -13.66778,19.711 -4.45016,25.12192c-1.36516,-9.03464 -0.25256,-17.27731 4.45016,-25.12192" fill="#d8d8d8" fill-opacity="1"></path></g><g opacity="1"><title>path24</title><path d="M7.64127,29.51266c10.26526,9.14902 23.93932,1.50375 23.80275,-9.18384c-7.02631,5.84058 -14.65656,9.15173 -23.80275,9.18384" fill="#d8d8d8" fill-opacity="1"></path></g><g opacity="1"><title>path22</title><path d="M127.89185,48.79294v0v-23.42187v0h8.56116v0v22.98431v0c0,0 -0.1759,2.45001 1.57483,2.45001c1.74939,0 1.57458,-2.45001 1.57458,-2.45001v0v-22.98431v0h8.56055v0v23.42188c0,6.56274 -2.95996,7.00012 -10.13513,7.00012c-7.17542,0 -10.13599,-0.61224 -10.13599,-7.00012z" fill="#d8d8d8" fill-opacity="1"></path></g><g opacity="1"><title>path20</title><path d="M78.4375,50.45538v0h-5.61499v0v-7.52545v0h5.61499v0v-5.07513v0h-5.61499v0v-7.40836v0h5.61499v0v-5.07538v0h-14.17578v0v30.18909v0h8.56079v0v-0.02966v0h5.61499v0v-5.0751v0" fill="#d8d8d8" fill-opacity="1"></path></g><g opacity="1"><title>path18</title><path d="M113.08911,33.04221c0,-3.2377 3.16516,-2.27521 3.16516,-2.27521v7.0878h-3.16516v-4.81259M104.52844,30.59192v24.96823h8.56067v-12.63022h3.16516v12.63022h8.56055v-30.18909h-16.6261c-3.21778,0 -3.66028,3.64582 -3.66028,5.22086z" fill="#d8d8d8" fill-opacity="1"></path></g><g opacity="1"><title>path16</title><path d="M92.8902,25.37106v0v12.48373v0h-3.16455v0v-12.48373v0h-8.56079v0v30.18909v0h8.56079v0v-12.63022v0h3.16455v0v12.63022v0h8.56079v0v-30.18909v0h-8.56079v0" fill="#d8d8d8" fill-opacity="1"></path></g><g opacity="1"><title>path14</title><path d="M49.48837,30.56262c0,0 0.77273,0 1.64767,0c0.87515,0 1.31272,1.42938 1.40024,3.52951c0.08755,2.1001 -0.87521,3.58762 -1.74994,3.67511c-0.87515,0.08755 -1.29791,0 -1.29791,0v-7.20462M50.34874,42.8426c1.39988,0 2.27509,0.26236 2.27509,2.10013v10.50043h8.66266v-11.638c0,-1.66256 -0.08746,-3.23773 -2.44998,-3.67532c0.96265,-0.17505 2.27509,-1.22482 2.27509,-2.88754c0,0 0,-4.28759 0,-6.30038c0,-2.01242 -1.31244,-5.57086 -4.98761,-5.57086h-15.19629v30.18909h8.56073v-12.63022z" fill="#d8d8d8" fill-opacity="1"></path></g><g opacity="1"><title>g12</title><g opacity="1"><title>path14</title><path d="M49.48837,30.56262c0,0 0.77273,0 1.64767,0c0.87515,0 1.31272,1.42938 1.40024,3.52951c0.08755,2.1001 -0.87521,3.58762 -1.74994,3.67511c-0.87515,0.08755 -1.29791,0 -1.29791,0v-7.20462M50.34874,42.8426c1.39988,0 2.27509,0.26236 2.27509,2.10013v10.50043h8.66266v-11.638c0,-1.66256 -0.08746,-3.23773 -2.44998,-3.67532c0.96265,-0.17505 2.27509,-1.22482 2.27509,-2.88754c0,0 0,-4.28759 0,-6.30038c0,-2.01242 -1.31244,-5.57086 -4.98761,-5.57086h-15.19629v30.18909h8.56073v-12.63022z" fill="#d8d8d8" fill-opacity="1"></path></g><g opacity="1"><title>path16</title><path d="M92.8902,25.37106v0v12.48373v0h-3.16455v0v-12.48373v0h-8.56079v0v30.18909v0h8.56079v0v-12.63022v0h3.16455v0v12.63022v0h8.56079v0v-30.18909v0h-8.56079v0" fill="#d8d8d8" fill-opacity="1"></path></g><g opacity="1"><title>path18</title><path d="M113.08911,33.04221c0,-3.2377 3.16516,-2.27521 3.16516,-2.27521v7.0878h-3.16516v-4.81259M104.52844,30.59192v24.96823h8.56067v-12.63022h3.16516v12.63022h8.56055v-30.18909h-16.6261c-3.21778,0 -3.66028,3.64582 -3.66028,5.22086z" fill="#d8d8d8" fill-opacity="1"></path></g><g opacity="1"><title>path20</title><path d="M78.4375,50.45538v0h-5.61499v0v-7.52545v0h5.61499v0v-5.07513v0h-5.61499v0v-7.40836v0h5.61499v0v-5.07538v0h-14.17578v0v30.18909v0h8.56079v0v-0.02966v0h5.61499v0v-5.0751v0" fill="#d8d8d8" fill-opacity="1"></path></g><g opacity="1"><title>path22</title><path d="M127.89185,48.79294v0v-23.42187v0h8.56116v0v22.98431v0c0,0 -0.1759,2.45001 1.57483,2.45001c1.74939,0 1.57458,-2.45001 1.57458,-2.45001v0v-22.98431v0h8.56055v0v23.42188c0,6.56274 -2.95996,7.00012 -10.13513,7.00012c-7.17542,0 -10.13599,-0.61224 -10.13599,-7.00012z" fill="#d8d8d8" fill-opacity="1"></path></g><g opacity="1"><title>path24</title><path d="M7.64127,29.51266c10.26526,9.14902 23.93932,1.50375 23.80275,-9.18384c-7.02631,5.84058 -14.65656,9.15173 -23.80275,9.18384" fill="#d8d8d8" fill-opacity="1"></path></g><g opacity="1"><title>path26</title><path d="M10.71349,3.17902c-13.13931,4.05396 -13.66778,19.711 -4.45016,25.12192c-1.36516,-9.03464 -0.25256,-17.27731 4.45016,-25.12192" fill="#d8d8d8" fill-opacity="1"></path></g><g opacity="1"><title>path28</title><path d="M32.67915,17.78613c2.7941,-13.46356 -10.66188,-21.48621 -19.85094,-16.02747c8.57091,3.16718 15.25191,8.12122 19.85094,16.02747" fill="#d8d8d8" fill-opacity="1"></path></g></g><g opacity="1"><title>g10</title><g opacity="1"><title>g12</title><g opacity="1"><title>path14</title><path d="M49.48837,30.56262c0,0 0.77273,0 1.64767,0c0.87515,0 1.31272,1.42938 1.40024,3.52951c0.08755,2.1001 -0.87521,3.58762 -1.74994,3.67511c-0.87515,0.08755 -1.29791,0 -1.29791,0v-7.20462M50.34874,42.8426c1.39988,0 2.27509,0.26236 2.27509,2.10013v10.50043h8.66266v-11.638c0,-1.66256 -0.08746,-3.23773 -2.44998,-3.67532c0.96265,-0.17505 2.27509,-1.22482 2.27509,-2.88754c0,0 0,-4.28759 0,-6.30038c0,-2.01242 -1.31244,-5.57086 -4.98761,-5.57086h-15.19629v30.18909h8.56073v-12.63022z" fill="#d8d8d8" fill-opacity="1"></path></g><g opacity="1"><title>path16</title><path d="M92.8902,25.37106v0v12.48373v0h-3.16455v0v-12.48373v0h-8.56079v0v30.18909v0h8.56079v0v-12.63022v0h3.16455v0v12.63022v0h8.56079v0v-30.18909v0h-8.56079v0" fill="#d8d8d8" fill-opacity="1"></path></g><g opacity="1"><title>path18</title><path d="M113.08911,33.04221c0,-3.2377 3.16516,-2.27521 3.16516,-2.27521v7.0878h-3.16516v-4.81259M104.52844,30.59192v24.96823h8.56067v-12.63022h3.16516v12.63022h8.56055v-30.18909h-16.6261c-3.21778,0 -3.66028,3.64582 -3.66028,5.22086z" fill="#d8d8d8" fill-opacity="1"></path></g><g opacity="1"><title>path20</title><path d="M78.4375,50.45538v0h-5.61499v0v-7.52545v0h5.61499v0v-5.07513v0h-5.61499v0v-7.40836v0h5.61499v0v-5.07538v0h-14.17578v0v30.18909v0h8.56079v0v-0.02966v0h5.61499v0v-5.0751v0" fill="#d8d8d8" fill-opacity="1"></path></g><g opacity="1"><title>path22</title><path d="M127.89185,48.79294v0v-23.42187v0h8.56116v0v22.98431v0c0,0 -0.1759,2.45001 1.57483,2.45001c1.74939,0 1.57458,-2.45001 1.57458,-2.45001v0v-22.98431v0h8.56055v0v23.42188c0,6.56274 -2.95996,7.00012 -10.13513,7.00012c-7.17542,0 -10.13599,-0.61224 -10.13599,-7.00012z" fill="#d8d8d8" fill-opacity="1"></path></g><g opacity="1"><title>path24</title><path d="M7.64127,29.51266c10.26526,9.14902 23.93932,1.50375 23.80275,-9.18384c-7.02631,5.84058 -14.65656,9.15173 -23.80275,9.18384" fill="#d8d8d8" fill-opacity="1"></path></g><g opacity="1"><title>path26</title><path d="M10.71349,3.17902c-13.13931,4.05396 -13.66778,19.711 -4.45016,25.12192c-1.36516,-9.03464 -0.25256,-17.27731 4.45016,-25.12192" fill="#d8d8d8" fill-opacity="1"></path></g><g opacity="1"><title>path28</title><path d="M32.67915,17.78613c2.7941,-13.46356 -10.66188,-21.48621 -19.85094,-16.02747c8.57091,3.16718 15.25191,8.12122 19.85094,16.02747" fill="#d8d8d8" fill-opacity="1"></path></g></g></g></g></svg>