<?xml version="1.0" standalone="no"?>
<!DOCTYPE svg PUBLIC "-//W3C//DTD SVG 20010904//EN"
 "http://www.w3.org/TR/2001/REC-SVG-20010904/DTD/svg10.dtd">
<svg version="1.0" xmlns="http://www.w3.org/2000/svg"
 width="800.000000pt" height="800.000000pt" viewBox="0 0 800.000000 800.000000"
 preserveAspectRatio="xMidYMid meet">
<metadata>
Created by potrace 1.11, written by Peter Selinger 2001-2013
</metadata>
<g transform="translate(0.000000,800.000000) scale(0.100000,-0.100000)"
fill="#000000" stroke="none">
<path d="M3859 7675 c-2 -1 -38 -6 -79 -9 -41 -3 -100 -9 -130 -13 -30 -3 -65
-7 -77 -7 -13 -1 -23 -3 -23 -6 0 -3 -12 -5 -27 -6 -23 -1 -113 -17 -208 -38
-48 -10 -191 -47 -205 -53 -8 -3 -20 -7 -27 -9 -10 -2 -155 -47 -191 -59 -7
-3 -13 -4 -15 -4 -1 1 -28 -10 -59 -24 -32 -14 -58 -23 -58 -20 0 3 -8 -1 -18
-10 -10 -9 -27 -18 -38 -20 -10 -2 -50 -18 -89 -37 -38 -18 -76 -34 -84 -36
-8 -1 -17 -6 -20 -11 -3 -4 -46 -28 -95 -53 -197 -100 -466 -285 -666 -458
-73 -63 -284 -274 -342 -342 -26 -30 -58 -68 -73 -85 -61 -71 -235 -308 -235
-321 0 -3 -5 -10 -10 -17 -23 -26 -89 -133 -90 -144 0 -6 -3 -13 -7 -15 -10
-4 -42 -61 -96 -168 -23 -47 -46 -88 -52 -92 -5 -4 -6 -8 -2 -8 5 0 1 -12 -7
-27 -35 -63 -157 -372 -171 -433 -4 -18 -38 -129 -45 -150 -5 -14 -12 -36 -15
-50 -2 -14 -11 -52 -19 -85 -15 -59 -21 -88 -31 -143 -3 -15 -8 -38 -11 -52
-3 -14 -8 -43 -10 -65 -3 -22 -7 -51 -10 -65 -2 -14 -7 -47 -10 -75 -3 -27 -7
-63 -9 -80 -23 -165 -23 -612 0 -770 2 -16 7 -50 9 -75 8 -67 15 -118 27 -185
5 -33 12 -71 14 -84 4 -20 -31 -59 -214 -243 -120 -120 -226 -233 -234 -251
-9 -17 -18 -52 -22 -77 -4 -24 -9 -48 -11 -52 -2 -3 0 -9 6 -13 5 -3 10 -16
10 -28 0 -26 30 -78 65 -113 63 -63 188 -82 270 -41 21 11 93 73 158 139 82
82 123 116 130 109 10 -10 34 -68 42 -102 9 -39 144 -318 210 -433 25 -44 45
-83 45 -88 0 -4 5 -8 10 -8 6 0 10 -4 10 -10 0 -13 119 -194 131 -198 5 -2 9
-8 9 -14 0 -17 124 -175 255 -327 59 -67 252 -259 314 -311 30 -25 72 -62 95
-82 22 -21 44 -38 47 -38 3 0 19 -11 35 -25 111 -97 371 -260 580 -364 209
-105 298 -142 479 -200 122 -40 123 -40 133 -42 4 -1 17 -5 30 -10 12 -5 33
-11 45 -13 12 -2 42 -9 67 -16 25 -7 52 -13 60 -14 8 -1 26 -5 40 -8 25 -6
122 -25 170 -33 14 -2 25 -4 25 -5 0 -1 23 -3 50 -6 28 -3 64 -7 80 -10 126
-19 559 -26 715 -12 77 8 275 34 320 43 14 3 41 8 60 11 19 3 49 9 65 14 17 5
43 11 58 14 15 3 54 12 85 21 31 10 66 19 77 21 12 2 48 13 80 24 33 11 68 23
78 25 22 5 169 60 212 80 17 7 59 25 95 40 36 15 95 42 131 61 36 19 71 34 77
34 7 0 12 5 12 10 0 6 4 10 9 10 8 0 57 27 200 111 14 8 30 17 35 22 6 4 67
46 136 94 69 47 134 94 145 104 11 10 63 53 115 96 164 134 432 414 535 558
11 16 25 33 31 39 6 6 22 28 35 47 13 20 54 81 90 135 113 169 225 375 304
559 26 61 48 111 50 112 1 2 37 -32 81 -73 95 -92 143 -116 222 -113 95 4 176
59 212 145 23 53 26 98 11 153 -18 64 -28 76 -204 252 l-159 159 8 38 c4 20 8
42 10 47 2 11 33 186 39 225 4 23 7 49 20 150 11 82 17 227 17 405 -1 278 -11
397 -53 640 -12 66 -22 127 -23 135 -2 8 -5 24 -9 35 -3 11 -9 34 -11 50 -3
17 -10 45 -15 63 -5 18 -11 36 -12 40 -1 4 -5 17 -10 30 -5 13 -9 29 -9 36 0
13 -73 239 -92 285 -6 14 -12 28 -13 31 -16 47 -104 247 -137 310 -15 30 -28
60 -28 67 0 7 -4 13 -9 13 -5 0 -11 8 -14 18 -7 22 -65 124 -111 196 -20 31
-36 59 -36 62 0 2 -5 10 -10 17 -6 7 -45 62 -87 122 -42 61 -83 116 -90 123
-7 8 -26 30 -41 50 -15 21 -31 42 -37 48 -5 7 -35 41 -65 75 -71 83 -279 291
-354 354 -93 79 -136 114 -191 155 -22 16 -44 33 -50 38 -34 27 -235 158 -320
209 -60 36 -311 161 -375 187 -25 10 -58 24 -75 31 -68 30 -135 54 -135 49 0
-4 -6 -2 -12 4 -12 8 -188 67 -235 77 -10 2 -44 11 -75 19 -32 9 -72 18 -89
21 -18 3 -35 7 -38 9 -3 2 -24 7 -46 10 -71 11 -99 16 -130 22 -16 3 -41 7
-55 8 -14 2 -47 6 -75 10 -27 4 -72 9 -100 12 -58 6 -551 14 -556 9z m531
-489 c25 -2 90 -11 145 -20 95 -15 116 -18 175 -31 14 -3 35 -7 48 -10 13 -2
31 -6 40 -9 9 -3 28 -7 42 -10 14 -2 37 -9 53 -15 15 -6 27 -9 27 -7 0 2 51
-14 113 -35 61 -22 119 -41 129 -43 9 -3 30 -12 47 -20 17 -9 33 -17 36 -17
19 -1 263 -118 353 -169 111 -63 250 -156 370 -248 168 -128 421 -378 531
-524 19 -27 39 -48 43 -48 4 0 8 -6 8 -14 0 -7 7 -19 14 -26 13 -10 118 -164
181 -265 44 -69 185 -346 185 -361 0 -3 11 -29 25 -59 14 -30 28 -62 30 -72 2
-10 11 -36 21 -58 10 -22 18 -42 19 -45 1 -3 11 -36 23 -75 12 -38 20 -73 19
-76 -1 -3 4 -13 12 -22 7 -10 11 -17 8 -17 -3 0 3 -30 13 -66 17 -57 25 -94
35 -154 1 -8 5 -26 8 -40 8 -30 16 -73 22 -120 14 -97 17 -117 21 -144 15 -92
22 -438 11 -586 -8 -115 -18 -214 -22 -219 -2 -2 -131 124 -287 279 -198 198
-296 289 -325 302 -64 28 -139 26 -208 -6 -18 -9 -282 -266 -588 -572 l-557
-556 -1153 1152 c-916 916 -1161 1156 -1197 1172 -60 26 -139 25 -195 -2 -31
-15 -272 -250 -859 -837 -449 -449 -819 -814 -821 -811 -23 22 -22 565 0 678
3 14 7 48 10 75 2 28 6 59 8 70 4 18 10 52 24 125 2 14 9 45 14 70 6 25 12 54
14 65 6 30 26 108 32 125 4 8 7 22 9 30 2 8 17 56 34 105 17 50 32 95 34 100
2 6 8 23 14 38 7 16 12 31 12 33 0 3 10 26 22 52 12 26 23 52 24 57 4 21 69
150 79 157 5 4 7 8 3 8 -4 0 9 28 29 63 19 34 39 71 44 82 8 18 122 197 174
271 27 40 114 153 145 188 83 97 114 131 205 221 132 131 159 155 290 256 247
192 476 322 780 444 11 5 22 9 25 10 3 1 13 5 22 9 9 4 22 9 30 10 7 2 20 6
28 9 47 19 237 74 325 93 72 17 303 53 370 59 44 4 81 8 83 10 4 4 470 -3 522
-9z m-471 -3566 c846 -846 1162 -1156 1192 -1169 56 -25 148 -25 201 1 27 13
225 204 578 556 295 295 546 545 558 555 20 18 24 15 312 -274 214 -214 289
-296 285 -308 -4 -9 -11 -29 -17 -46 -5 -16 -13 -39 -18 -50 -4 -11 -25 -63
-46 -115 -75 -190 -166 -364 -287 -550 -34 -52 -66 -99 -70 -105 -4 -5 -26
-35 -48 -65 -36 -48 -65 -85 -149 -185 -32 -38 -275 -280 -321 -319 -52 -45
-278 -215 -303 -228 -11 -6 -23 -14 -26 -17 -3 -3 -16 -12 -30 -20 -14 -8 -54
-33 -90 -55 -82 -50 -289 -153 -400 -199 -198 -81 -499 -167 -640 -182 -19 -2
-35 -4 -35 -5 0 -5 -99 -18 -200 -27 -98 -9 -464 -9 -560 0 -90 8 -218 27
-305 44 -19 4 -39 8 -45 9 -5 1 -12 3 -15 4 -3 1 -14 3 -25 5 -56 9 -174 43
-320 90 -209 68 -488 206 -693 343 -35 23 -67 42 -72 42 -4 0 -10 3 -12 8 -1
4 -39 34 -83 67 -191 144 -402 347 -540 520 -16 21 -38 46 -47 56 -10 11 -18
22 -18 25 0 4 -56 80 -70 94 -14 14 -50 70 -50 78 0 5 -7 15 -16 23 -8 7 -24
29 -35 48 -10 20 -30 54 -44 76 -43 70 -126 232 -169 328 -9 20 -23 53 -32 73
-17 39 -93 249 -99 274 -2 8 -8 30 -14 47 l-10 33 836 835 c459 459 836 835
838 835 2 0 521 -518 1154 -1150z"/>
</g>
</svg>
